<svg xmlns="http://www.w3.org/2000/svg" viewBox="0 0 30 30" class="design-iconfont">
  <defs>
    <linearGradient x1="50%" y1="0%" x2="50%" y2="97.3043291%" id="w383azv38__fexr87syja">
      <stop stop-color="#DDA143" offset="0%"/>
      <stop stop-color="#D87720" offset="100%"/>
    </linearGradient>
  </defs>
  <g fill-rule="nonzero" fill="none">
    <path d="M28,13.5474364 C28,6.06544247 21.7319363,0 14,0 C6.26800087,0 0,6.06544247 0,13.5474364 C0,17.9349955 2.1560633,21.8346561 5.49820502,24.3104654 L5.49657057,24.3104654 L5.51329228,24.3216584 C5.862688,24.5797967 14,30 14,30 C14,30 22.1373749,24.5797358 22.4868334,24.3215368 L22.5025493,24.3110433 L22.5010092,24.3110433 C25.8435909,21.8352948 28,17.9353301 28,13.5474364 Z" fill="url(#w383azv38__fexr87syja)" transform="translate(1)"/>
    <path d="M18.9800514,21.0334108 L9.32321625,21.0334108 C8.36494921,21.0334108 8,20.6684616 8,20.2183331 L8,11.0542161 C8,10.829519 8.36494921,10.2398727 9.32321625,10.2398727 L18.9800514,10.2398727 C19.4301799,10.2398727 20,10.829519 20,11.0542161 L20,20.2183331 C20,20.6684616 19.4301799,21.0334108 18.9800514,21.0334108 Z M15.0405091,19.6279525 L15.1110023,18.9575327 L16.188961,18.8738221 C16.6970995,18.8510586 16.8336801,18.2592094 16.8160568,18.1652185 C16.7991678,17.6401909 16.5913597,17.2767103 16.3798801,16.947742 L15.0316975,16.9602252 L14.9935136,16.3573614 L14.0330437,18.0462612 L15.0405091,19.6279525 Z M11.2177212,18.5558683 C11.2162526,18.8488557 11.6494921,18.917146 12.0966834,18.9068657 L13.3009424,18.9068657 L13.3009424,16.9110268 L11.5408151,16.8948721 C10.6640558,16.9154326 10.2007098,16.8412679 9.84604088,16.4469465 L11.2177212,18.5558683 Z M9.79977971,15.4747277 C10.0575205,15.9167789 9.97894994,16.3470811 10.49076,16.880186 C10.5223351,16.6444744 10.9416228,16.6620977 11.3322727,16.6569575 L12.0350018,15.5070371 L12.5666381,15.7948843 L11.644352,14.0854241 L9.76747032,14.1015788 L10.9533717,14.5164607 L9.79977971,15.4747277 Z M12.5387345,11.4683637 C12.1715824,11.5271081 11.9013585,11.8714968 11.6935504,12.2687554 L11.1097785,13.3217476 L12.855954,14.633215 L13.975768,12.3010647 C14.1299719,11.9809081 14.4192877,11.6108187 14.9362379,11.4925958 L12.5387345,11.4683637 Z M16.4048464,13.2086648 L15.81006,11.9228981 C15.5442418,11.4903929 14.9590013,11.6570799 15.2710807,11.8245013 C14.4361767,11.9882511 14.2180884,12.3458573 14.0330437,12.690246 L15.2931098,13.8621956 L14.1879819,14.1882267 L16.4019092,14.2102558 L17.0260678,12.5617427 L16.4048464,13.2086648 Z M17.8815322,15.1053727 L17.2441562,14.0846898 L15.5501163,15.1428222 L16.7462979,17.0865255 C16.9519031,17.3765757 17.1354791,17.8098152 16.9886183,18.318688 L18.1723167,16.233264 C18.2986171,15.8830009 18.1282585,15.4806021 17.8815322,15.1053727 Z M18.9800514,9.38293966 L9.32321625,9.38293966 C8.36494921,9.38293966 8,8.77346714 8,8.32333864 L8,6.81507771 C8,6.36494921 8.36494921,6 9.32321625,6 L18.9800514,6 C19.4301799,6 20,6.36494921 20,6.81507771 L20,8.32333864 C20,8.77346714 19.4301799,9.38293966 18.9800514,9.38293966 Z" fill="#FFF" transform="translate(1)"/>
  </g>
</svg>
